<?xml version="1.0" encoding="utf-8"?>
<!-- Generator: Adobe Illustrator 16.0.0, SVG Export Plug-In . SVG Version: 6.00 Build 0)  -->
<!DOCTYPE svg PUBLIC "-//W3C//DTD SVG 1.1//EN" "http://www.w3.org/Graphics/SVG/1.1/DTD/svg11.dtd">
<svg version="1.1" id="Layer_1" xmlns="http://www.w3.org/2000/svg" xmlns:xlink="http://www.w3.org/1999/xlink" x="0px" y="0px"
	 width="47.242px" height="47.242px" viewBox="0 0 47.242 47.242" enable-background="new 0 0 47.242 47.242" xml:space="preserve">
<g>
	<polygon fill="#6B747C" points="18.186,45.535 0.854,28.202 0.146,28.909 17.479,46.242 6.658,46.241 6.658,47.241 19.186,47.242 
		19.186,34.713 18.186,34.713 	"/>
	<polygon fill="#6B747C" points="29.055,1.707 46.389,19.04 47.096,18.333 29.762,1 40.584,1 40.584,0 28.055,0 28.055,12.529 
		29.055,12.529 	"/>
	<polygon fill="#6B747C" points="34.713,28.056 34.713,29.056 45.535,29.057 28.203,46.389 28.91,47.096 46.242,29.764 
		46.242,40.585 47.242,40.585 47.242,28.057 	"/>
	<polygon fill="#6B747C" points="12.529,18.187 1.707,18.187 19.039,0.854 18.332,0.146 1,17.479 1.001,6.657 0.001,6.657 0,19.187 
		12.529,19.187 	"/>
</g>
</svg>